# Blender 3.3.0
# www.blender.org
o Tile1
v -0.700000 0.000000 -1.000000
v -0.700000 0.000000 1.000000
v 0.700000 0.000000 -1.000000
v 0.700000 0.000000 1.000000
v 0.233333 0.000000 -1.000000
v -0.233333 0.000000 -1.000000
v -0.233333 -0.100000 1.000000
v 0.233333 -0.100000 1.000000
vn -0.0000 1.0000 -0.0000
vn -0.0000 0.9988 0.0499
vn -0.2093 0.9766 0.0488
vn 0.2093 0.9766 0.0488
vt 0.000000 0.000000
vt 1.000000 0.000000
vt 0.000000 1.000000
vt 1.000000 1.000000
vt 0.000000 0.666667
vt 0.000000 0.333333
vt 1.000000 0.333333
vt 1.000000 0.666667
s 0
f 5/5/1 4/4/1 3/3/1
f 2/2/1 6/6/1 1/1/1
f 7/7/2 5/5/2 6/6/2
f 5/5/3 8/8/3 4/4/3
f 2/2/4 7/7/4 6/6/4
f 7/7/2 8/8/2 5/5/2
