# Blender 3.3.0
# www.blender.org
o Tile0
v -0.700000 0.000000 -1.000000
v -0.700000 0.000000 1.000000
v 0.700000 0.000000 -1.000000
v 0.700000 0.000000 1.000000
v 0.233333 -0.100000 -1.000000
v -0.233333 -0.100000 -1.000000
v -0.233333 -0.100000 1.000000
v 0.233333 -0.100000 1.000000
vn -0.2095 0.9778 -0.0000
vn 0.2095 0.9778 -0.0000
vn -0.0000 1.0000 -0.0000
vt 0.000000 0.000000
vt 1.000000 0.000000
vt 0.000000 1.000000
vt 1.000000 1.000000
vt 0.000000 0.666667
vt 0.000000 0.333333
vt 1.000000 0.333333
vt 1.000000 0.666667
s 0
f 8/8/1 3/3/1 5/5/1
f 2/2/2 6/6/2 1/1/2
f 7/7/3 5/5/3 6/6/3
f 8/8/1 4/4/1 3/3/1
f 2/2/2 7/7/2 6/6/2
f 7/7/3 8/8/3 5/5/3
